# xmcd CD database file
#
# Track frame offsets:
#	150
#	69088
#	108527
#	144260
#	180729
#	234154
#
# Disc length: 3820 seconds
#
# Revision: 0
# Processed by: cddbd v1.5.1PL0 Copyright (c) Steve Scherf et al.
# Submitted via: CDex 1.51
#
DISCID=440eea06
DTITLE=YSU All-Star Alumni Jazz Ensemble - YSU All-Star Alumni Jazz Ensemble
DYEAR=2003
DGENRE=Jazz
TTITLE0=Things Ain't What They Used To Be
TTITLE1=Just In Time
TTITLE2=My Foolish Heart
TTITLE3=Full House
TTITLE4=It Was A Very Good Year
TTITLE5=All Tony's Children Got Rhythm
EXTD=YEAR: 2003
EXTT0=
EXTT1=
EXTT2=
EXTT3=
EXTT4=
EXTT5=
PLAYORDER=
